<?xml version="1.0" encoding="UTF-8" standalone="no"?>
<svg width="20px" height="20px" viewBox="0 0 20 20" version="1.1" xmlns="http://www.w3.org/2000/svg" xmlns:xlink="http://www.w3.org/1999/xlink">
    <!-- Generator: Sketch 3.8.3 (29802) - http://www.bohemiancoding.com/sketch -->
    <title>Artboard 4</title>
    <desc>Created with Sketch.</desc>
    <defs>
        <path d="M7.5,15 C11.6421356,15 15,11.6421356 15,7.5 C15,3.35786438 11.6421356,0 7.5,0 C3.35786438,0 0,3.35786438 0,7.5 C0,11.6421356 3.35786438,15 7.5,15 Z" id="path-1"></path>
        <mask id="mask-2" maskContentUnits="userSpaceOnUse" maskUnits="objectBoundingBox" x="0" y="0" width="15" height="15" fill="white">
            <use xlink:href="#path-1"></use>
        </mask>
    </defs>
    <g id="Page-1" stroke="none" stroke-width="1" fill="none" fill-rule="evenodd">
        <g id="Artboard-4">
            <g id="Group-Copy">
                <rect id="Rectangle-3" fill="#434343" transform="translate(14.100459, 14.711526) rotate(-44.000000) translate(-14.100459, -14.711526) " x="12.3504595" y="8.4615259" width="3.5" height="12.5" rx="1.75"></rect>
                <use id="Oval-1" stroke="#434343" mask="url(#mask-2)" stroke-width="4" fill="#434343" xlink:href="#path-1"></use>
                <path d="M7.5,14 C11.0898509,14 14,11.0898509 14,7.5 C14,3.91014913 11.0898509,1 7.5,1 C3.91014913,1 1,3.91014913 1,7.5 C1,11.0898509 3.91014913,14 7.5,14 Z" id="Oval-1" fill="#FFFFFF"></path>
                <path d="M4.41552734,12 L4.41552734,3.05224609 L7.77246094,3.05224609 C8.45605811,3.05224609 9.00435178,3.14278067 9.4173584,3.32385254 C9.83036502,3.50492441 10.1538481,3.78364883 10.3878174,4.16003418 C10.6217867,4.53641953 10.7387695,4.93009235 10.7387695,5.34106445 C10.7387695,5.72355334 10.6350108,6.08365717 10.4274902,6.42138672 C10.2199697,6.75911627 9.906659,7.03173724 9.48754883,7.23925781 C10.0287299,7.39795001 10.4447821,7.6685365 10.7357178,8.05102539 C11.0266535,8.43351428 11.1721191,8.88516992 11.1721191,9.40600586 C11.1721191,9.82511603 11.083619,10.2147199 10.9066162,10.5748291 C10.7296134,10.9349383 10.5109063,11.2126455 10.2504883,11.407959 C9.99007031,11.6032725 9.66353549,11.7507726 9.27087402,11.8504639 C8.87821255,11.9501551 8.39705688,12 7.82739258,12 L4.41552734,12 Z M5.59960938,6.81201172 L7.53442383,6.81201172 C8.0593288,6.81201172 8.4357085,6.77742548 8.66357422,6.70825195 C8.9646825,6.61873328 9.19152756,6.47021588 9.34411621,6.26269531 C9.49670486,6.05517474 9.57299805,5.79476068 9.57299805,5.48144531 C9.57299805,5.18440607 9.50179108,4.92297476 9.359375,4.69714355 C9.21695892,4.47131235 9.01351044,4.3166915 8.74902344,4.23327637 C8.48453644,4.14986124 8.03084631,4.1081543 7.38793945,4.1081543 L5.59960938,4.1081543 L5.59960938,6.81201172 Z M5.59960938,10.9440918 L7.82739258,10.9440918 C8.20988147,10.9440918 8.47843347,10.9298504 8.63305664,10.9013672 C8.9056817,10.8525388 9.13354401,10.7711594 9.31665039,10.6572266 C9.49975677,10.5432937 9.65030865,10.3774832 9.76831055,10.15979 C9.88631244,9.94209689 9.9453125,9.69083801 9.9453125,9.40600586 C9.9453125,9.07234534 9.85986414,8.78243124 9.68896484,8.53625488 C9.51806555,8.29007852 9.28104807,8.11714731 8.97790527,8.01745605 C8.67476248,7.9177648 8.23836548,7.86791992 7.66870117,7.86791992 L5.59960938,7.86791992 L5.59960938,10.9440918 Z" id="B" fill="#434343"></path>
            </g>
        </g>
    </g>
</svg>