<?xml version="1.0" encoding="UTF-8" standalone="no"?>
<svg width="133px" height="30px" viewBox="0 0 133 30" version="1.1" xmlns="http://www.w3.org/2000/svg" xmlns:xlink="http://www.w3.org/1999/xlink">
    <!-- Generator: Sketch 3.8.3 (29802) - http://www.bohemiancoding.com/sketch -->
    <title>Artboard 5</title>
    <desc>Created with Sketch.</desc>
    <defs></defs>
    <g id="Page-1" stroke="none" stroke-width="1" fill="none" fill-rule="evenodd">
        <g id="Artboard-5" fill="#000000">
            <g id="LR2IR">
                <path d="M102.140625,-1.77635684e-15 L100.148438,-1.77635684e-15 L100.148438,0.0859375 L99,0.0859375 C97.7031185,0.0859375 96.7578155,0.468746172 96.1640625,1.234375 C95.7734355,1.7343775 95.578125,2.93749047 95.578125,4.84375 L95.578125,25.375 C95.578125,26.984383 95.6796865,28.0468724 95.8828125,28.5625 C96.0390633,28.953127 96.367185,29.2890611 96.8671875,29.5703125 C97.2125908,29.7630957 97.568315,29.9063247 97.9343629,30 L104.502091,30 C105.252311,29.8102009 105.824528,29.4169731 106.21875,28.8203125 C106.546877,28.3359351 106.710938,27.1875091 106.710938,25.375 L106.710938,4.84375 C106.710938,2.84374 106.49219,1.60156492 106.054688,1.1171875 C105.445309,0.429684063 104.539069,0.0859375 103.335938,0.0859375 L102.140625,0.0859375 L102.140625,-1.77982629e-15 Z M121.319561,-1.77635684e-15 L133,-1.77635684e-15 L133,30 L132.811243,30 C131.504516,29.771341 130.413797,29.3781142 129.539062,28.8203125 C128.460932,28.1328091 127.171883,26.742198 125.671875,24.6484375 L119.109375,15.53125 C121.781263,14.937497 123.7539,13.9218822 125.027344,12.484375 C126.300788,11.0468678 126.9375,9.35157227 126.9375,7.3984375 C126.9375,5.57030336 126.378912,3.99610035 125.261719,2.67578125 C124.176277,1.39298677 122.862237,0.501067998 121.319561,-3.19830794e-12 Z M124.549463,30 L113.351846,30 C112.727118,29.8418189 112.224422,29.5423406 111.84375,29.1015625 C111.406248,28.6171851 111.1875,27.37501 111.1875,25.375 L111.1875,16.140625 C111.437501,16.1562501 111.679686,16.1679687 111.914062,16.1757812 C112.148439,16.1835938 112.367186,16.1875 112.570312,16.1875 C113.070315,16.1875 113.718746,16.1718752 114.515625,16.140625 L124.549463,30 Z M86.53125,-1.77635684e-15 L77.4957682,-1.77635684e-15 C77.957764,0.301523275 78.3953722,0.650481495 78.8085938,1.046875 C80.5351649,2.70313328 81.3984375,4.65623875 81.3984375,6.90625 C81.3984375,8.51563305 81.0234412,10.124992 80.2734375,11.734375 C79.1171817,14.2656377 77.2422005,16.9452984 74.6484375,19.7734375 C70.757793,24.0234588 68.3281298,26.5859331 67.359375,27.4609375 L75.65625,27.4609375 C77.3437584,27.4609375 78.5273404,27.3984381 79.2070312,27.2734375 C79.8867221,27.1484369 80.4999973,26.8945332 81.046875,26.5117188 C81.5937527,26.1289043 82.0703105,25.585941 82.4765625,24.8828125 L83.34375,24.8828125 L81.4811722,30 L88.8705925,30 C89.5754477,29.8281777 90.1237891,29.4896371 90.515625,28.984375 C90.8906269,28.4843725 91.078125,27.2812595 91.078125,25.375 L91.078125,4.84375 C91.078125,3.23436695 90.9765635,2.17187758 90.7734375,1.65625 C90.6171867,1.26562305 90.2968774,0.929688906 89.8125,0.6484375 C89.1249966,0.273435625 88.4062538,0.0859375 87.65625,0.0859375 L86.53125,0.0859375 L86.53125,-1.77982629e-15 Z M67.3805667,-1.77635684e-15 L49.3195609,-1.77635684e-15 C50.8622371,0.501067998 52.1762773,1.39298677 53.2617188,2.67578125 C54.3789118,3.99610035 54.9375,5.57030336 54.9375,7.3984375 C54.9375,9.35157227 54.3007876,11.0468678 53.0273438,12.484375 C51.7538999,13.9218822 49.7812634,14.937497 47.109375,15.53125 L53.671875,24.6484375 C55.1718825,26.742198 56.4609321,28.1328091 57.5390625,28.8203125 C58.413797,29.3781142 59.5045163,29.771341 60.8112432,30 L62.5126413,30 C67.9511538,25.0291749 71.7854439,20.9641107 74.015625,17.8046875 C76.2656363,14.6171716 77.390625,11.7031382 77.390625,9.0625 C77.390625,7.04686492 76.7734437,5.39063148 75.5390625,4.09375 C74.3046813,2.79686852 72.8281336,2.1484375 71.109375,2.1484375 C69.5468672,2.1484375 68.1445375,2.60546418 66.9023438,3.51953125 C65.66015,4.43359832 64.7421905,5.77342867 64.1484375,7.5390625 L63.28125,7.5390625 C63.671877,4.64842305 64.6757732,2.42969523 66.2929688,0.8828125 C66.6372661,0.553484633 66.9997985,0.259213874 67.3805667,-2.5701663e-14 Z M30.140625,-1.77635684e-15 L15.3515625,-1.77635684e-15 L15.3515625,0.0859375 C13.6640541,0.0703124219 12.4804721,0.226560859 11.8007812,0.5546875 C11.1210904,0.882814141 10.6562512,1.2968725 10.40625,1.796875 C10.1562488,2.2968775 10.03125,3.49217805 10.03125,5.3828125 L10.03125,25.3515625 C10.03125,26.648444 10.1562488,27.5390601 10.40625,28.0234375 C10.5937509,28.3515641 10.8828105,28.5937492 11.2734375,28.75 C11.6640645,28.9062508 12.8828023,28.984375 14.9296875,28.984375 L17.25,28.984375 C19.6875122,28.984375 21.3984326,28.8046893 22.3828125,28.4453125 C23.3671924,28.0859357 24.2656209,27.4492233 25.078125,26.5351562 C25.8906291,25.6210892 26.7031209,24.1796973 27.515625,22.2109375 L28.2890625,22.375 L25.8855299,30 L32.5020913,30 C33.2523113,29.8102009 33.8245278,29.4169731 34.21875,28.8203125 C34.5468766,28.3359351 34.7109375,27.1875091 34.7109375,25.375 L34.7109375,4.84375 C34.7109375,2.84374 34.4921897,1.60156492 34.0546875,1.1171875 C33.4453095,0.429684063 32.5390685,0.0859375 31.3359375,0.0859375 L30.140625,0.0859375 L30.140625,-1.77982629e-15 Z M52.5494627,30 L41.3518461,30 C40.7271183,29.8418189 40.224422,29.5423406 39.84375,29.1015625 C39.4062478,28.6171851 39.1875,27.37501 39.1875,25.375 L39.1875,16.140625 C39.4375012,16.1562501 39.6796863,16.1679687 39.9140625,16.1757812 C40.1484387,16.1835938 40.3671865,16.1875 40.5703125,16.1875 C41.070315,16.1875 41.718746,16.1718752 42.515625,16.140625 L52.5494627,30 Z M0.9609375,-1.77635684e-15 L0,-1.77635684e-15 L0,30 L3.32240381,30 C4.07262381,29.8102009 4.64484032,29.4169731 5.0390625,28.8203125 C5.36718914,28.32031 5.53125,27.1640716 5.53125,25.3515625 L5.53125,4.84375 C5.53125,2.85936508 5.31250219,1.61719 4.875,1.1171875 C4.26562195,0.429684063 3.35938102,0.0859375 2.15625,0.0859375 L0.9609375,0.0859375 L0.9609375,-1.77982629e-15 Z" id="Combined-Shape"></path>
                <path d="M39.1875,14.6640625 C39.4843765,14.6640625 39.7421864,14.6679687 39.9609375,14.6757812 C40.1796886,14.6835938 40.3593743,14.6875 40.5,14.6875 C43.5312652,14.6875 45.8163986,14.0312566 47.3554688,12.71875 C48.8945389,11.4062434 49.6640625,9.73438516 49.6640625,7.703125 C49.6640625,5.71874008 49.042975,4.10547496 47.8007812,2.86328125 C46.5585875,1.62108754 44.9140727,1 42.8671875,1 C41.960933,1 40.7343827,1.14843602 39.1875,1.4453125 L39.1875,14.6640625 Z"></path>
                <path d="M111.1875,14.6640625 C111.484376,14.6640625 111.742186,14.6679687 111.960938,14.6757812 C112.179689,14.6835938 112.359374,14.6875 112.5,14.6875 C115.531265,14.6875 117.816399,14.0312566 119.355469,12.71875 C120.894539,11.4062434 121.664062,9.73438516 121.664062,7.703125 C121.664062,5.71874008 121.042975,4.10547496 119.800781,2.86328125 C118.558588,1.62108754 116.914073,1 114.867188,1 C113.960933,1 112.734383,1.14843602 111.1875,1.4453125 L111.1875,14.6640625 Z"></path>
            </g>
        </g>
    </g>
</svg>